<?xml version="1.0" encoding="UTF-8" standalone="no"?>
<!DOCTYPE svg PUBLIC "-//W3C//DTD SVG 1.1//EN" "http://www.w3.org/Graphics/SVG/1.1/DTD/svg11.dtd">
<svg width="100%" height="100%" viewBox="0 0 1042 813" version="1.1" xmlns="http://www.w3.org/2000/svg" xmlns:xlink="http://www.w3.org/1999/xlink" xml:space="preserve" xmlns:serif="http://www.serif.com/" style="fill-rule:evenodd;clip-rule:evenodd;stroke-linecap:square;stroke-miterlimit:1.5;">
    <g transform="matrix(1,0,0,1,-1850.89,-1099.66)">
        <path d="M1889.76,1712.6L1978.35,1712.6C2027.27,1712.6 2066.93,1752.26 2066.93,1801.18L2066.93,1889.76C1969.08,1889.76 1889.76,1810.44 1889.76,1712.6Z" style="fill:rgb(57,115,103);stroke:black;stroke-width:0.01px;"/>
    </g>
    <g transform="matrix(1,0,0,1,-1811.84,-1217.77)">
        <path d="M2569,1417.32C2520.02,1417.32 2480.32,1457.03 2480.32,1506.01L2480.32,1712.6C2480.32,1810.44 2400.99,1889.76 2303.15,1889.76L2303.15,1417.32C2303.15,1319.48 2382.47,1240.16 2480.32,1240.16L2834.65,1240.16C2834.65,1338 2755.33,1417.32 2657.48,1417.32L2569,1417.32Z" style="fill:rgb(57,115,103);"/>
    </g>
    <g transform="matrix(1,0,0,1,-1880.89,-1109.66)">
        <path d="M2598.43,1446.72C2598.43,1397.87 2638.03,1358.27 2686.88,1358.27L2775.59,1358.27C2775.59,1456.11 2696.27,1535.43 2598.43,1535.43L2598.43,1446.72Z" style="fill:rgb(161,179,165);"/>
    </g>
    <g transform="matrix(1,0,0,1,-1811.84,-1099.66)">
        <path d="M2066.93,1358.27L1948.82,1358.27C1948.82,1260.42 2028.14,1181.1 2125.98,1181.1L2244.09,1181.1L2244.09,1712.6C2244.09,1810.44 2164.78,1889.76 2066.93,1889.76L2066.93,1358.27Z" style="fill:rgb(161,179,165);"/>
    </g>
</svg>
